# MagicaVoxel @ Ephtracy

# group
o 

# material
mtllib pictureframesmall.mtl
usemtl palette

# normals
vn -1 0 0
vn 1 0 0
vn 0 0 1
vn 0 0 -1
vn 0 -1 0
vn 0 1 0

# texcoords
vt 0.537109 0.5
vt 0.876953 0.5
vt 0.958984 0.5

# verts
v -2.5 0 -0.1
v -2.5 0 -0.2
v -2.5 0.1 0.3
v -2.5 0.1 -0.1
v -2.5 7.8 0.3
v -2.5 7.8 -0.1
v -2.5 7.9 -0.1
v -2.5 7.9 -0.2
v -2.4 0 0.3
v -2.4 0 -0.1
v -2.4 0.1 0.3
v -2.4 0.1 -0.1
v -2.4 7.8 0.3
v -2.4 7.8 -0.1
v -2.4 7.9 0.3
v -2.4 7.9 -0.1
v 2.2 0.2 0.2
v 2.2 0.2 0.1
v 2.2 7.7 0.2
v 2.2 7.7 0.1
v 2.3 0.1 0.3
v 2.3 0.1 0.2
v 2.3 0.2 0.3
v 2.3 0.2 0.2
v 2.3 7.7 0.3
v 2.3 7.7 0.2
v 2.3 7.8 0.3
v 2.3 7.8 0.2
v 2.4 0.2 0.3
v 2.4 0.2 0.2
v 2.4 7.7 0.3
v 2.4 7.7 0.2
v -2.4 0.2 0.3
v -2.4 0.2 0.2
v -2.4 7.7 0.3
v -2.4 7.7 0.2
v -2.3 0.1 0.3
v -2.3 0.1 0.2
v -2.3 0.2 0.3
v -2.3 0.2 0.2
v -2.3 0.2 0.1
v -2.3 7.7 0.3
v -2.3 7.7 0.2
v -2.3 7.7 0.1
v -2.3 7.8 0.3
v -2.3 7.8 0.2
v 2.4 0 0.3
v 2.4 0 -0.1
v 2.4 0.1 0.3
v 2.4 0.1 -0.1
v 2.4 7.8 0.3
v 2.4 7.8 -0.1
v 2.4 7.9 0.3
v 2.4 7.9 -0.1
v 2.5 0 -0.1
v 2.5 0 -0.2
v 2.5 0.1 0.3
v 2.5 0.1 -0.1
v 2.5 7.8 0.3
v 2.5 7.8 -0.1
v 2.5 7.9 -0.1
v 2.5 7.9 -0.2
v -2.5 0.1 0.3
v -2.5 7.8 0.3
v -2.4 0 0.3
v -2.4 0.1 0.3
v -2.4 0.2 0.3
v -2.4 7.7 0.3
v -2.4 7.8 0.3
v -2.4 7.9 0.3
v -2.3 0.1 0.3
v -2.3 0.2 0.3
v -2.3 7.7 0.3
v -2.3 7.8 0.3
v 2.3 0.1 0.3
v 2.3 0.2 0.3
v 2.3 7.7 0.3
v 2.3 7.8 0.3
v 2.4 0 0.3
v 2.4 0.1 0.3
v 2.4 0.2 0.3
v 2.4 7.7 0.3
v 2.4 7.8 0.3
v 2.4 7.9 0.3
v 2.5 0.1 0.3
v 2.5 7.8 0.3
v -2.4 0.2 0.2
v -2.4 7.7 0.2
v -2.3 0.1 0.2
v -2.3 0.2 0.2
v -2.3 7.7 0.2
v -2.3 7.8 0.2
v 2.2 0.2 0.2
v 2.2 7.7 0.2
v 2.3 0.1 0.2
v 2.3 0.2 0.2
v 2.3 7.7 0.2
v 2.3 7.8 0.2
v 2.4 0.2 0.2
v 2.4 7.7 0.2
v -2.3 0.2 0.1
v -2.3 7.7 0.1
v 2.2 0.2 0.1
v 2.2 7.7 0.1
v -2.5 0 -0.1
v -2.5 0.1 -0.1
v -2.5 7.8 -0.1
v -2.5 7.9 -0.1
v -2.4 0 -0.1
v -2.4 0.1 -0.1
v -2.4 7.8 -0.1
v -2.4 7.9 -0.1
v 2.4 0 -0.1
v 2.4 0.1 -0.1
v 2.4 7.8 -0.1
v 2.4 7.9 -0.1
v 2.5 0 -0.1
v 2.5 0.1 -0.1
v 2.5 7.8 -0.1
v 2.5 7.9 -0.1
v -2.5 0 -0.2
v -2.5 7.9 -0.2
v 2.5 0 -0.2
v 2.5 7.9 -0.2
v -2.4 0 0.3
v 2.4 0 0.3
v -2.5 0 -0.1
v -2.4 0 -0.1
v 2.4 0 -0.1
v 2.5 0 -0.1
v -2.5 0 -0.2
v 2.5 0 -0.2
v -2.5 0.1 0.3
v -2.4 0.1 0.3
v 2.4 0.1 0.3
v 2.5 0.1 0.3
v -2.5 0.1 -0.1
v -2.4 0.1 -0.1
v 2.4 0.1 -0.1
v 2.5 0.1 -0.1
v -2.4 7.7 0.3
v -2.3 7.7 0.3
v 2.3 7.7 0.3
v 2.4 7.7 0.3
v -2.4 7.7 0.2
v -2.3 7.7 0.2
v 2.2 7.7 0.2
v 2.3 7.7 0.2
v 2.4 7.7 0.2
v -2.3 7.7 0.1
v 2.2 7.7 0.1
v -2.3 7.8 0.3
v 2.3 7.8 0.3
v -2.3 7.8 0.2
v 2.3 7.8 0.2
v -2.3 0.1 0.3
v 2.3 0.1 0.3
v -2.3 0.1 0.2
v 2.3 0.1 0.2
v -2.4 0.2 0.3
v -2.3 0.2 0.3
v 2.3 0.2 0.3
v 2.4 0.2 0.3
v -2.4 0.2 0.2
v -2.3 0.2 0.2
v 2.2 0.2 0.2
v 2.3 0.2 0.2
v 2.4 0.2 0.2
v -2.3 0.2 0.1
v 2.2 0.2 0.1
v -2.5 7.8 0.3
v -2.4 7.8 0.3
v 2.4 7.8 0.3
v 2.5 7.8 0.3
v -2.5 7.8 -0.1
v -2.4 7.8 -0.1
v 2.4 7.8 -0.1
v 2.5 7.8 -0.1
v -2.4 7.9 0.3
v 2.4 7.9 0.3
v -2.5 7.9 -0.1
v -2.4 7.9 -0.1
v 2.4 7.9 -0.1
v 2.5 7.9 -0.1
v -2.5 7.9 -0.2
v 2.5 7.9 -0.2

# faces
f 4/2/1 2/2/1 1/2/1
f 5/1/1 4/1/1 3/1/1
f 6/2/1 2/2/1 4/2/1
f 6/1/1 4/1/1 5/1/1
f 7/2/1 2/2/1 6/2/1
f 8/2/1 2/2/1 7/2/1
f 11/1/1 10/1/1 9/1/1
f 12/1/1 10/1/1 11/1/1
f 15/1/1 14/1/1 13/1/1
f 16/1/1 14/1/1 15/1/1
f 19/1/1 18/1/1 17/1/1
f 20/1/1 18/1/1 19/1/1
f 23/1/1 22/1/1 21/1/1
f 24/1/1 22/1/1 23/1/1
f 27/1/1 26/1/1 25/1/1
f 28/1/1 26/1/1 27/1/1
f 31/1/1 30/1/1 29/1/1
f 32/1/1 30/1/1 31/1/1
f 33/1/2 34/1/2 35/1/2
f 35/1/2 34/1/2 36/1/2
f 37/1/2 38/1/2 39/1/2
f 39/1/2 38/1/2 40/1/2
f 40/1/2 41/1/2 43/1/2
f 43/1/2 41/1/2 44/1/2
f 42/1/2 43/1/2 45/1/2
f 45/1/2 43/1/2 46/1/2
f 47/1/2 48/1/2 49/1/2
f 49/1/2 48/1/2 50/1/2
f 51/1/2 52/1/2 53/1/2
f 53/1/2 52/1/2 54/1/2
f 55/2/2 56/2/2 58/2/2
f 57/1/2 58/1/2 59/1/2
f 58/2/2 56/2/2 60/2/2
f 59/1/2 58/1/2 60/1/2
f 60/2/2 56/2/2 61/2/2
f 61/2/2 56/2/2 62/2/2
f 66/1/3 64/1/3 63/1/3
f 67/1/3 64/1/3 66/1/3
f 68/1/3 64/1/3 67/1/3
f 69/1/3 64/1/3 68/1/3
f 71/1/3 66/1/3 65/1/3
f 71/1/3 67/1/3 66/1/3
f 72/1/3 67/1/3 71/1/3
f 73/1/3 70/1/3 69/1/3
f 73/1/3 69/1/3 68/1/3
f 74/1/3 70/1/3 73/1/3
f 75/1/3 71/1/3 65/1/3
f 78/1/3 70/1/3 74/1/3
f 79/1/3 76/1/3 75/1/3
f 79/1/3 75/1/3 65/1/3
f 80/1/3 76/1/3 79/1/3
f 81/1/3 76/1/3 80/1/3
f 82/1/3 78/1/3 77/1/3
f 83/1/3 70/1/3 78/1/3
f 83/1/3 78/1/3 82/1/3
f 84/1/3 70/1/3 83/1/3
f 85/1/3 81/1/3 80/1/3
f 85/1/3 82/1/3 81/1/3
f 85/1/3 83/1/3 82/1/3
f 86/1/3 83/1/3 85/1/3
f 90/1/3 88/1/3 87/1/3
f 91/1/3 88/1/3 90/1/3
f 93/1/3 90/1/3 89/1/3
f 94/1/3 92/1/3 91/1/3
f 95/1/3 93/1/3 89/1/3
f 95/1/3 94/1/3 93/1/3
f 96/1/3 94/1/3 95/1/3
f 97/1/3 92/1/3 94/1/3
f 97/1/3 94/1/3 96/1/3
f 98/1/3 92/1/3 97/1/3
f 99/1/3 97/1/3 96/1/3
f 100/1/3 97/1/3 99/1/3
f 103/3/3 102/3/3 101/3/3
f 104/3/3 102/3/3 103/3/3
f 109/2/3 106/2/3 105/2/3
f 110/2/3 106/2/3 109/2/3
f 111/2/3 108/2/3 107/2/3
f 112/2/3 108/2/3 111/2/3
f 117/2/3 114/2/3 113/2/3
f 118/2/3 114/2/3 117/2/3
f 119/2/3 116/2/3 115/2/3
f 120/2/3 116/2/3 119/2/3
f 121/2/4 122/2/4 123/2/4
f 123/2/4 122/2/4 124/2/4
f 128/1/5 126/1/5 125/1/5
f 129/1/5 126/1/5 128/1/5
f 131/2/5 128/2/5 127/2/5
f 131/2/5 130/2/5 129/2/5
f 131/2/5 129/2/5 128/2/5
f 132/2/5 130/2/5 131/2/5
f 137/1/5 134/1/5 133/1/5
f 138/1/5 134/1/5 137/1/5
f 139/1/5 136/1/5 135/1/5
f 140/1/5 136/1/5 139/1/5
f 145/1/5 142/1/5 141/1/5
f 146/1/5 142/1/5 145/1/5
f 148/1/5 144/1/5 143/1/5
f 149/1/5 144/1/5 148/1/5
f 150/1/5 147/1/5 146/1/5
f 151/1/5 147/1/5 150/1/5
f 154/1/5 153/1/5 152/1/5
f 155/1/5 153/1/5 154/1/5
f 156/1/6 157/1/6 158/1/6
f 158/1/6 157/1/6 159/1/6
f 160/1/6 161/1/6 164/1/6
f 164/1/6 161/1/6 165/1/6
f 162/1/6 163/1/6 167/1/6
f 167/1/6 163/1/6 168/1/6
f 165/1/6 166/1/6 169/1/6
f 169/1/6 166/1/6 170/1/6
f 171/1/6 172/1/6 175/1/6
f 175/1/6 172/1/6 176/1/6
f 173/1/6 174/1/6 177/1/6
f 177/1/6 174/1/6 178/1/6
f 179/1/6 180/1/6 182/1/6
f 182/1/6 180/1/6 183/1/6
f 181/2/6 182/2/6 185/2/6
f 183/2/6 184/2/6 185/2/6
f 182/2/6 183/2/6 185/2/6
f 185/2/6 184/2/6 186/2/6
